<svg xmlns="http://www.w3.org/2000/svg" viewBox="0 0 1000 1000"><defs><style>.cls-1{fill:#263238;}.cls-2{fill:#546e7a;}.cls-3{fill:#fff;}.cls-4{fill:none;stroke:#89ddff;stroke-miterlimit:10;stroke-width:26px;}</style></defs><g id="Dark_Theme_Logo" data-name="Dark Theme Logo"><rect id="Background_Logo" data-name="Background Logo" class="cls-1" width="1000" height="1000"/><path class="cls-2" d="M280.73,649.28l-8.67-3.38,29.5-52.23,8.59,3.38Zm35.06,0-8.66-3.38,29.49-52.23,8.6,3.38Z"/><path class="cls-2" d="M370.85,600a29.37,29.37,0,0,1,8.66,1.14,17.48,17.48,0,0,1,6.22,3.29,16.23,16.23,0,0,1,4.07,5.21,25,25,0,0,1,2.21,6.88,47.07,47.07,0,0,1,.69,8.32,76.19,76.19,0,0,1-.9,12.74,15.73,15.73,0,0,1-3.28,7.89,8.71,8.71,0,0,1-6.87,2.69,8.56,8.56,0,0,1-3.49-.66,7.41,7.41,0,0,1-2.51-1.79,8.82,8.82,0,0,1-1.61-2.64,12.72,12.72,0,0,1-.81-3.17H373a10.22,10.22,0,0,1-5.38,4.8,11.86,11.86,0,0,1-4.44.77,11.07,11.07,0,0,1-6.62-1.8,10.06,10.06,0,0,1-3.6-4.89,20.83,20.83,0,0,1-1.1-7q0-7.4,3.63-11.75t11.27-4.35a28.38,28.38,0,0,1,5.86.64,27,27,0,0,1,5.92,2v18a16.19,16.19,0,0,0,.3,3.51,3.57,3.57,0,0,0,.93,1.88,2.31,2.31,0,0,0,1.58.56,1.78,1.78,0,0,0,1.59-.91,7.47,7.47,0,0,0,.86-2.92,48.24,48.24,0,0,0,.37-5.23c.06-2.16.09-4.77.09-7.85a51.48,51.48,0,0,0-.61-8.33,17.35,17.35,0,0,0-2.14-6.14,9.81,9.81,0,0,0-4.25-3.78,16.16,16.16,0,0,0-6.92-1.29,23.57,23.57,0,0,0-7.49,1.24,28.15,28.15,0,0,0-7.8,4.27l-4.38-4.4a35.17,35.17,0,0,1,9.66-5.26A32.63,32.63,0,0,1,370.85,600Zm-4.35,21.64a3.75,3.75,0,0,0-3.77,2.22c-.67,1.47-1,4.13-1,8a26.56,26.56,0,0,0,.3,4.43,4.81,4.81,0,0,0,1.05,2.5,2.69,2.69,0,0,0,2.05.79,3.64,3.64,0,0,0,2.39-.67,3.73,3.73,0,0,0,1.15-1.65,10.09,10.09,0,0,0,.5-1.9V622.25A6.61,6.61,0,0,0,366.5,621.68Z"/><path class="cls-2" d="M429.06,633.42a4.52,4.52,0,0,0,.58,2.6,3.54,3.54,0,0,0,1.87,1.23l-2.27,6.22a17.78,17.78,0,0,1-5.56-1.24,7.83,7.83,0,0,1-3.56-3,13.05,13.05,0,0,1-5.47,3.25,22.22,22.22,0,0,1-6.81,1.06q-5.74,0-9.17-2.8A9.18,9.18,0,0,1,400,625.6q4.74-2.8,13.37-2.81h5v-1.2a4.07,4.07,0,0,0-1.88-3.68,10.24,10.24,0,0,0-5.48-1.2,31.29,31.29,0,0,0-4.6.44,45.12,45.12,0,0,0-5.61,1.24l-2.56-6.29a49.34,49.34,0,0,1,7.52-1.76,46.69,46.69,0,0,1,7-.6q8.31,0,12.29,2.89a9.66,9.66,0,0,1,4,8.33Zm-17.39,3.41a8.9,8.9,0,0,0,3.75-.92,6.64,6.64,0,0,0,3-2.58v-5.15h-2.74q-4.62,0-6.8,1.21a3.85,3.85,0,0,0-2.17,3.55,3.43,3.43,0,0,0,1.31,2.85A5.81,5.81,0,0,0,411.67,636.83Z"/><path class="cls-2" d="M467.32,609.74a8.91,8.91,0,0,1,4.38,1,5.81,5.81,0,0,1,2.56,3,14.23,14.23,0,0,1,.84,5.34v23.52h-9.5V620.13a5.37,5.37,0,0,0-.37-2.37,1.52,1.52,0,0,0-1.49-.69,4.29,4.29,0,0,0-1.81.44,7.14,7.14,0,0,0-2.05,1.63v23.43H452.1V620.13a5.37,5.37,0,0,0-.37-2.37,1.53,1.53,0,0,0-1.49-.69,4.29,4.29,0,0,0-1.81.44,7.14,7.14,0,0,0-2.05,1.63v23.43h-9.64V610.79h8.13l.74,3.08a14.39,14.39,0,0,1,3.54-3.08,8.27,8.27,0,0,1,4.25-1,6.72,6.72,0,0,1,3.59.91,5,5,0,0,1,2.12,2.86,14.82,14.82,0,0,1,3.72-2.72A9.62,9.62,0,0,1,467.32,609.74Z"/><path class="cls-2" d="M501.61,636.14a12.27,12.27,0,0,0,4.3-.76,26,26,0,0,0,4-2l4.95,6a21.85,21.85,0,0,1-6,3,24.3,24.3,0,0,1-7.87,1.2,23.18,23.18,0,0,1-10.31-2.11,15.58,15.58,0,0,1-6.63-5.87,16.3,16.3,0,0,1-2.32-8.72,16.59,16.59,0,0,1,2.37-8.84,16.26,16.26,0,0,1,6.73-6.09,22.66,22.66,0,0,1,10.37-2.22,26.4,26.4,0,0,1,7.55,1,20.79,20.79,0,0,1,6.09,3l-4.81,5.69a17.35,17.35,0,0,0-4-1.77,15.28,15.28,0,0,0-4.39-.63,8.28,8.28,0,0,0-6.05,2.26q-2.29,2.26-2.29,7.62a11.79,11.79,0,0,0,1.08,5.52,6.36,6.36,0,0,0,3,2.88A10.23,10.23,0,0,0,501.61,636.14Z"/><path class="cls-2" d="M540.08,609.74a20.91,20.91,0,0,1,9.78,2.1,14.63,14.63,0,0,1,6.18,5.88,17.78,17.78,0,0,1,2.13,8.87A18.19,18.19,0,0,1,556,635.7a14.37,14.37,0,0,1-6.19,5.86,21.54,21.54,0,0,1-9.75,2,21.82,21.82,0,0,1-9.73-2,14.26,14.26,0,0,1-6.21-5.81,18.29,18.29,0,0,1-2.15-9.13,17.75,17.75,0,0,1,2.15-8.86,14.92,14.92,0,0,1,6.21-5.92A20.65,20.65,0,0,1,540.08,609.74Zm0,7a5.69,5.69,0,0,0-5,2.38q-1.63,2.38-1.63,7.56c0,3.51.54,6.06,1.63,7.63a6.52,6.52,0,0,0,10.06,0c1.09-1.57,1.63-4.14,1.63-7.69s-.54-5.93-1.63-7.51A5.67,5.67,0,0,0,540.08,616.71Z"/><path class="cls-2" d="M587.21,597.17l11.08,1v44.41h-9.82l-.56-3.5a13.07,13.07,0,0,1-4.1,3.19,13.31,13.31,0,0,1-6.21,1.33,13.09,13.09,0,0,1-7.66-2.12,12.65,12.65,0,0,1-4.52-6,24.32,24.32,0,0,1-1.49-8.93,20.29,20.29,0,0,1,1.78-8.71,13.72,13.72,0,0,1,13-8.14,13.92,13.92,0,0,1,4.63.75,12.05,12.05,0,0,1,3.82,2.18Zm-5.47,19.48a5.54,5.54,0,0,0-4.63,2.32q-1.75,2.32-1.75,7.68a19.84,19.84,0,0,0,.73,6.09,5.73,5.73,0,0,0,2,3,5.22,5.22,0,0,0,3,.87,6.05,6.05,0,0,0,3.38-1,9.92,9.92,0,0,0,2.72-2.69V619.26a9.58,9.58,0,0,0-2.45-1.92A6.35,6.35,0,0,0,581.74,616.65Z"/><path class="cls-2" d="M630.87,610.79v25.32h9.47v6.46H609.23v-6.46h10.56V617.25H609.58v-6.46Zm-6.7-16.64a7.12,7.12,0,0,1,4.7,1.52,4.9,4.9,0,0,1,0,7.62,7,7,0,0,1-4.7,1.54,7.14,7.14,0,0,1-4.75-1.54,4.86,4.86,0,0,1,0-7.62A7.24,7.24,0,0,1,624.17,594.15Z"/><path class="cls-2" d="M650.19,642.57V610.79h9.68l.77,3.68a17.24,17.24,0,0,1,5.26-3.56,16.1,16.1,0,0,1,6.31-1.17,10.8,10.8,0,0,1,7.51,2.48,9,9,0,0,1,2.73,7v23.34H671.37V622a12.28,12.28,0,0,0-.31-3.1,2.67,2.67,0,0,0-1.11-1.64,4,4,0,0,0-2.16-.5,6.14,6.14,0,0,0-2.26.44,8.9,8.9,0,0,0-2.15,1.24,16.35,16.35,0,0,0-2.11,2v22.23Z"/><path class="cls-2" d="M725.34,605.7l2.59,6.94a22.53,22.53,0,0,1-4.59,1,54.88,54.88,0,0,1-6.14.3,14.11,14.11,0,0,1,5.35,3.19,6.85,6.85,0,0,1,1.84,5,8.5,8.5,0,0,1-1.93,5.49,12.67,12.67,0,0,1-5.47,3.79,23,23,0,0,1-8.38,1.38c-.79,0-1.54,0-2.24-.09s-1.39-.15-2.07-.27a2,2,0,0,0-.91.78,2,2,0,0,0-.32,1,1.74,1.74,0,0,0,.72,1.35c.48.4,1.61.6,3.38.6h6.11a21.3,21.3,0,0,1,7.52,1.2,11.57,11.57,0,0,1,4.92,3.26,7.08,7.08,0,0,1,1.76,4.73q0,4.88-5,7.69t-14.9,2.81a38.17,38.17,0,0,1-11.06-1.24,9.86,9.86,0,0,1-5.44-3.53,9.55,9.55,0,0,1-1.52-5.43h9.81a3.76,3.76,0,0,0,.65,2.26,4.23,4.23,0,0,0,2.49,1.3,25.7,25.7,0,0,0,5.35.42,23,23,0,0,0,5.4-.48,4.87,4.87,0,0,0,2.54-1.3,2.81,2.81,0,0,0,.69-1.84,2.65,2.65,0,0,0-1.3-2.28,7.53,7.53,0,0,0-4.1-.87h-5.93q-6,0-8.77-1.9t-2.73-4.44a5.78,5.78,0,0,1,1.1-3.35,8.74,8.74,0,0,1,3.11-2.67,12.18,12.18,0,0,1-5.12-3.81,9,9,0,0,1-1.55-5.29,9.44,9.44,0,0,1,2.14-6.18,13.76,13.76,0,0,1,5.91-4,24.44,24.44,0,0,1,8.61-1.41,38.46,38.46,0,0,0,7.26-.49,28.86,28.86,0,0,0,5.54-1.53C722.28,607.13,723.84,606.44,725.34,605.7Zm-17.22,10.24a5.91,5.91,0,0,0-4.17,1.42,5,5,0,0,0-1.54,3.9,5.11,5.11,0,0,0,1.57,4,6,6,0,0,0,4.14,1.41,5.84,5.84,0,0,0,4.23-1.41,5.51,5.51,0,0,0,1.45-4.16,5,5,0,0,0-1.44-3.93A6.19,6.19,0,0,0,708.12,615.94Z"/><path class="cls-3" d="M413,507H360.76l-9.4,47.29H307.22l54.57-219.22H413l54.57,219.22H422.41Zm-45.56-37.65h38.61l-19.3-97Z"/><path class="cls-3" d="M556.64,329.57q19.18,0,32.63,6.25a84.25,84.25,0,0,1,24.65,17.63L593.2,384.14A59.62,59.62,0,0,0,577,372.35,43.44,43.44,0,0,0,557.67,368a31,31,0,0,0-20.46,7.82q-9.27,7.83-14.8,24.68t-5.53,43.73q0,26.42,5.34,43.1T537,511.86a32.63,32.63,0,0,0,21.5,7.83q13.38,0,22.26-6.17a128,128,0,0,0,16.35-13.44l19.17,30.05A93.29,93.29,0,0,1,591.52,551q-14.67,8.7-35.39,8.7-24.2,0-42.92-13.21t-29.35-38.91q-10.62-25.69-10.62-63.35,0-36.69,11-62.32t29.92-39A71.89,71.89,0,0,1,556.64,329.57Z"/><polyline id="Open_Brackets" data-name="Open Brackets" class="cls-4" points="281.6 342.88 185.5 449.75 281.6 552.39"/><polyline id="Close_Brackets" data-name="Close Brackets" class="cls-4" points="718.4 342.76 814.5 449.63 718.4 552.27"/><line id="Close" class="cls-4" x1="630.76" y1="555.51" x2="692.34" y2="329.9"/></g></svg>